<svg width="28" height="28" viewBox="0 0 28 28" fill="none" xmlns="http://www.w3.org/2000/svg">
<path d="M17.0625 9.625H10.9375C10.5894 9.625 10.2556 9.76328 10.0094 10.0094C9.76328 10.2556 9.625 10.5894 9.625 10.9375V17.0625C9.625 17.4106 9.76328 17.7444 10.0094 17.9906C10.2556 18.2367 10.5894 18.375 10.9375 18.375H17.0625C17.4106 18.375 17.7444 18.2367 17.9906 17.9906C18.2367 17.7444 18.375 17.4106 18.375 17.0625V10.9375C18.375 10.5894 18.2367 10.2556 17.9906 10.0094C17.7444 9.76328 17.4106 9.625 17.0625 9.625ZM15.75 15.75H12.25V12.25H15.75V15.75ZM25.375 15.3125H24.0625V12.6875H25.375C25.7231 12.6875 26.0569 12.5492 26.3031 12.3031C26.5492 12.0569 26.6875 11.7231 26.6875 11.375C26.6875 11.0269 26.5492 10.6931 26.3031 10.4469C26.0569 10.2008 25.7231 10.0625 25.375 10.0625H24.0625V6.125C24.0625 5.54484 23.832 4.98844 23.4218 4.5782C23.0116 4.16797 22.4552 3.9375 21.875 3.9375H17.9375V2.625C17.9375 2.2769 17.7992 1.94306 17.5531 1.69692C17.3069 1.45078 16.9731 1.3125 16.625 1.3125C16.2769 1.3125 15.9431 1.45078 15.6969 1.69692C15.4508 1.94306 15.3125 2.2769 15.3125 2.625V3.9375H12.6875V2.625C12.6875 2.2769 12.5492 1.94306 12.3031 1.69692C12.0569 1.45078 11.7231 1.3125 11.375 1.3125C11.0269 1.3125 10.6931 1.45078 10.4469 1.69692C10.2008 1.94306 10.0625 2.2769 10.0625 2.625V3.9375H6.125C5.54484 3.9375 4.98844 4.16797 4.5782 4.5782C4.16797 4.98844 3.9375 5.54484 3.9375 6.125V10.0625H2.625C2.2769 10.0625 1.94306 10.2008 1.69692 10.4469C1.45078 10.6931 1.3125 11.0269 1.3125 11.375C1.3125 11.7231 1.45078 12.0569 1.69692 12.3031C1.94306 12.5492 2.2769 12.6875 2.625 12.6875H3.9375V15.3125H2.625C2.2769 15.3125 1.94306 15.4508 1.69692 15.6969C1.45078 15.9431 1.3125 16.2769 1.3125 16.625C1.3125 16.9731 1.45078 17.3069 1.69692 17.5531C1.94306 17.7992 2.2769 17.9375 2.625 17.9375H3.9375V21.875C3.9375 22.4552 4.16797 23.0116 4.5782 23.4218C4.98844 23.832 5.54484 24.0625 6.125 24.0625H10.0625V25.375C10.0625 25.7231 10.2008 26.0569 10.4469 26.3031C10.6931 26.5492 11.0269 26.6875 11.375 26.6875C11.7231 26.6875 12.0569 26.5492 12.3031 26.3031C12.5492 26.0569 12.6875 25.7231 12.6875 25.375V24.0625H15.3125V25.375C15.3125 25.7231 15.4508 26.0569 15.6969 26.3031C15.9431 26.5492 16.2769 26.6875 16.625 26.6875C16.9731 26.6875 17.3069 26.5492 17.5531 26.3031C17.7992 26.0569 17.9375 25.7231 17.9375 25.375V24.0625H21.875C22.4552 24.0625 23.0116 23.832 23.4218 23.4218C23.832 23.0116 24.0625 22.4552 24.0625 21.875V17.9375H25.375C25.7231 17.9375 26.0569 17.7992 26.3031 17.5531C26.5492 17.3069 26.6875 16.9731 26.6875 16.625C26.6875 16.2769 26.5492 15.9431 26.3031 15.6969C26.0569 15.4508 25.7231 15.3125 25.375 15.3125ZM21.4375 21.4375H6.5625V6.5625H21.4375V21.4375Z" fill="#4F46E5"/>
</svg>
