<svg width="24" height="24" viewBox="0 0 24 24" fill="none" xmlns="http://www.w3.org/2000/svg">
<path d="M16.1266 2.29785C16.5521 2.29796 16.974 2.37161 17.3737 2.51465L17.5436 2.58008C17.9369 2.74309 18.2993 2.97245 18.614 3.25781L18.7458 3.38281C19.0467 3.68393 19.2928 4.03486 19.4743 4.41895L19.5475 4.58496C19.7335 5.03421 19.8298 5.51574 19.8298 6.00195L19.8249 6.18457C19.8069 6.54818 19.7357 6.90726 19.613 7.25L19.5475 7.41992C19.3614 7.86881 19.0884 8.2765 18.7448 8.62012L18.7292 8.63477V8.63574L9.74774 17.2812C9.67118 17.3549 9.58422 17.4168 9.48993 17.4648L9.39325 17.5078C9.26144 17.5594 9.12071 17.5848 8.97919 17.582L8.87372 17.5742C8.80341 17.5659 8.73402 17.5512 8.66669 17.5293L8.56805 17.4922C8.43835 17.4355 8.32147 17.353 8.22333 17.251C8.14966 17.1744 8.08782 17.0875 8.03973 16.9932L7.99579 16.8965C7.95719 16.7978 7.93381 16.6941 7.92548 16.5889L7.92157 16.4824C7.92367 16.3764 7.94168 16.2714 7.9743 16.1709L8.01239 16.0723C8.05489 15.975 8.11077 15.8841 8.17938 15.8037L8.25262 15.7266L17.2253 7.09082L17.2263 7.08984C17.5155 6.79882 17.6767 6.40444 17.6755 5.99414L17.6677 5.8418C17.6366 5.53802 17.5163 5.25018 17.322 5.01465L17.2194 4.90137C17.1115 4.79409 16.9881 4.70393 16.8542 4.63281L16.7165 4.56836C16.5756 4.51052 16.4271 4.47343 16.2761 4.45898L16.1237 4.45215C15.7646 4.45331 15.4188 4.57912 15.1442 4.80566L15.0319 4.9082L5.8288 14.083C5.18725 14.7249 4.82669 15.5954 4.82684 16.5029L4.83173 16.6709C4.84829 17.0068 4.91373 17.3386 5.02704 17.6553L5.08759 17.8125C5.25964 18.2277 5.51195 18.6051 5.82977 18.9229C6.14753 19.2405 6.52503 19.4922 6.94012 19.6641C7.30342 19.8145 7.68983 19.9017 8.08173 19.9209L8.25067 19.9248C9.10155 19.9245 9.91994 19.6077 10.5475 19.0391L10.6696 18.9219L18.363 11.2344C18.4382 11.1591 18.5244 11.0959 18.6179 11.0459L18.7136 11C18.8445 10.9458 18.9849 10.918 19.1266 10.918C19.233 10.918 19.3387 10.9341 19.4401 10.9648L19.5397 11C19.6381 11.0407 19.7302 11.0958 19.8122 11.1631L19.8903 11.2344C19.9657 11.3097 20.0298 11.3956 20.0798 11.4893L20.1247 11.585C20.1789 11.7159 20.2067 11.8563 20.2067 11.998C20.2067 12.1398 20.1789 12.2802 20.1247 12.4111C20.0718 12.5388 19.9938 12.6543 19.8972 12.7529L19.8962 12.7539L19.8864 12.7627L12.194 20.4502C11.1476 21.4962 9.72828 22.0842 8.24872 22.084L7.97235 22.0771C6.68526 22.0132 5.4597 21.5048 4.50458 20.6396L4.30438 20.4492C3.25836 19.4028 2.67039 17.9835 2.67059 16.5039L2.67743 16.2275C2.7414 14.9404 3.24973 13.7149 4.11493 12.7598L4.30536 12.5596L13.5075 3.38184C14.1588 2.73092 15.0277 2.34796 15.9431 2.30273L16.1266 2.29785Z" fill="#94A3B8" stroke="#94A3B8" stroke-width="0.09375"/>
</svg>
