<svg width="24" height="24" viewBox="0 0 24 24" fill="none" xmlns="http://www.w3.org/2000/svg">
<path d="M11.999 2.66821C12.1055 2.66821 12.211 2.68424 12.3125 2.71509L12.4121 2.75024C12.5106 2.79113 12.6026 2.84675 12.6846 2.91431L12.7627 2.9856L19.5127 9.7356C19.588 9.81068 19.6521 9.8961 19.7021 9.9895L19.7471 10.0852C19.8015 10.2163 19.8301 10.3574 19.8301 10.4993C19.8301 10.6057 19.8141 10.7113 19.7832 10.8127L19.7471 10.9124C19.7063 11.0106 19.6513 11.102 19.584 11.1838L19.5127 11.2629C19.4125 11.3634 19.2931 11.4429 19.1621 11.4973C19.0311 11.5517 18.8908 11.5803 18.749 11.5803C18.6072 11.5803 18.4669 11.5517 18.3359 11.4973C18.2375 11.4565 18.1454 11.4017 18.0635 11.3342L17.9854 11.2629L13.0781 6.35571V20.2502C13.0781 20.5002 12.991 20.7411 12.834 20.9329L12.7627 21.012C12.5605 21.2141 12.2859 21.3284 12 21.3284C11.7498 21.3284 11.5083 21.2415 11.3164 21.0842L11.2373 21.012C11.0354 20.8099 10.9219 20.5359 10.9219 20.2502V6.35571L10.8418 6.43579L6.0127 11.2629C5.81015 11.4654 5.53544 11.5793 5.24902 11.5793C4.99829 11.5793 4.75668 11.4918 4.56445 11.3342L4.48535 11.2629C4.28284 11.0604 4.16899 10.7857 4.16895 10.4993C4.16895 10.2487 4.25576 10.0068 4.41309 9.8147L4.48535 9.7356L11.2354 2.9856C11.3104 2.9103 11.3959 2.84621 11.4893 2.79614L11.5859 2.75024C11.7169 2.69595 11.8573 2.66821 11.999 2.66821Z" fill="white" stroke="white" stroke-width="0.09375"/>
</svg>
