<svg width="24" height="24" viewBox="0 0 24 24" fill="none" xmlns="http://www.w3.org/2000/svg">
<path d="M10.2532 1.55823L10.3967 1.58459C10.5394 1.62002 10.6731 1.68379 10.7893 1.77209L10.8997 1.8678C11.0383 2.00639 11.1366 2.1805 11.1838 2.37073C11.2192 2.51336 11.2251 2.66128 11.2014 2.8053L11.1672 2.94788C10.7782 4.23486 10.7239 5.59823 11.0061 6.90979L11.0667 7.17151C11.4157 8.5626 12.1357 9.83296 13.1497 10.8473C14.1636 11.8616 15.4336 12.5817 16.8245 12.9313C18.1286 13.259 19.4934 13.25 20.7903 12.9059L21.0481 12.8326C21.1884 12.7898 21.3358 12.7758 21.4807 12.7916L21.6252 12.817C21.7677 12.8527 21.9009 12.9171 22.0168 13.0055L22.1262 13.1022C22.2298 13.2057 22.3114 13.3285 22.3655 13.4635L22.4104 13.6022C22.446 13.7444 22.4521 13.892 22.429 14.0358L22.3958 14.1774C21.8084 16.0933 20.6686 17.7897 19.1233 19.0563L18.8088 19.3043C17.0651 20.6236 14.9368 21.3342 12.7502 21.3278L12.3997 21.3219C10.7653 21.2652 9.16912 20.8119 7.74927 20.0006L7.44849 19.8209C5.95521 18.8974 4.7302 17.6013 3.8938 16.0621L3.73169 15.7506C2.94752 14.1794 2.58823 12.4324 2.68677 10.6832L2.71313 10.3336C2.87278 8.5852 3.48581 6.9108 4.4895 5.47522L4.69556 5.19104C5.90274 3.59144 7.5544 2.38702 9.4397 1.72522L9.81958 1.60022C9.96011 1.55695 10.108 1.54254 10.2532 1.55823ZM8.62622 4.48694C7.87857 4.94457 7.21137 5.52157 6.65161 6.19397L6.41821 6.48792C5.34156 7.91809 4.7828 9.66819 4.82739 11.4508L4.84497 11.8073C4.97026 13.5929 5.69592 15.2799 6.89868 16.5963L7.14575 16.8541C8.41156 18.1199 10.0658 18.9179 11.8372 19.1227L12.1926 19.1549C13.9781 19.2802 15.7496 18.7975 17.2209 17.7906L17.512 17.5817C18.3113 16.9777 18.9902 16.2283 19.5129 15.3737L19.5598 15.2965L19.47 15.3033C19.2312 15.3201 18.9909 15.3278 18.7502 15.3278L18.2502 15.3151C15.9262 15.1973 13.7133 14.2795 11.9885 12.7174L11.6272 12.3727C9.73785 10.4833 8.67508 7.9216 8.67212 5.24963L8.67798 4.88928C8.68217 4.76957 8.68913 4.65013 8.69751 4.53088L8.70337 4.44006L8.62622 4.48694Z" fill="#475569" stroke="#475569" stroke-width="0.09375"/>
</svg>
