<svg width="24" height="24" viewBox="0 0 24 24" fill="none" xmlns="http://www.w3.org/2000/svg">
<path d="M1.87497 12C1.87696 10.1109 2.62826 8.29978 3.96403 6.96402C5.2998 5.62825 7.11091 4.87694 8.99997 4.87496H18.2812L17.9512 4.5459C17.8466 4.44125 17.7636 4.31702 17.7069 4.18029C17.6503 4.04356 17.6211 3.89702 17.6211 3.74902C17.6211 3.60103 17.6503 3.45448 17.7069 3.31776C17.7636 3.18103 17.8466 3.05679 17.9512 2.95215C18.0559 2.8475 18.1801 2.76449 18.3168 2.70785C18.4536 2.65122 18.6001 2.62207 18.7481 2.62207C18.8961 2.62207 19.0426 2.65122 19.1794 2.70785C19.3161 2.76449 19.4403 2.8475 19.545 2.95215L21.795 5.20215C21.8999 5.30666 21.9831 5.43086 22.0398 5.5676C22.0966 5.70435 22.1259 5.85096 22.1259 5.99902C22.1259 6.14709 22.0966 6.2937 22.0398 6.43044C21.9831 6.56719 21.8999 6.69138 21.795 6.7959L19.545 9.0459C19.3336 9.25724 19.047 9.37597 18.7481 9.37597C18.4492 9.37597 18.1626 9.25724 17.9512 9.0459C17.7399 8.83455 17.6211 8.54791 17.6211 8.24902C17.6211 7.95014 17.7399 7.66349 17.9512 7.45215L18.2812 7.12496H8.99997C7.7075 7.12645 6.46839 7.64054 5.55447 8.55446C4.64055 9.46838 4.12646 10.7075 4.12497 12C4.12497 12.2983 4.00645 12.5845 3.79547 12.7955C3.58449 13.0064 3.29834 13.125 2.99997 13.125C2.7016 13.125 2.41545 13.0064 2.20448 12.7955C1.9935 12.5845 1.87497 12.2983 1.87497 12ZM21 10.875C20.7016 10.875 20.4155 10.9935 20.2045 11.2045C19.9935 11.4154 19.875 11.7016 19.875 12C19.8735 13.2924 19.3594 14.5315 18.4455 15.4455C17.5316 16.3594 16.2924 16.8735 15 16.875H5.71872L6.04872 16.5459C6.15337 16.4412 6.23638 16.317 6.29301 16.1803C6.34965 16.0436 6.3788 15.897 6.3788 15.749C6.3788 15.601 6.34965 15.4545 6.29301 15.3178C6.23638 15.181 6.15337 15.0568 6.04872 14.9521C5.94407 14.8475 5.81984 14.7645 5.68311 14.7079C5.54638 14.6512 5.39984 14.6221 5.25185 14.6221C5.10385 14.6221 4.95731 14.6512 4.82058 14.7079C4.68385 14.7645 4.55962 14.8475 4.45497 14.9521L2.20497 17.2021C2.10009 17.3067 2.01688 17.4309 1.96009 17.5676C1.90331 17.7043 1.87408 17.851 1.87408 17.999C1.87408 18.1471 1.90331 18.2937 1.96009 18.4304C2.01688 18.5672 2.10009 18.6914 2.20497 18.7959L4.45497 21.0459C4.55962 21.1505 4.68385 21.2336 4.82058 21.2902C4.95731 21.3468 5.10385 21.376 5.25185 21.376C5.39984 21.376 5.54638 21.3468 5.68311 21.2902C5.81984 21.2336 5.94407 21.1505 6.04872 21.0459C6.15337 20.9412 6.23638 20.817 6.29301 20.6803C6.34965 20.5436 6.3788 20.397 6.3788 20.249C6.3788 20.101 6.34965 19.9545 6.29301 19.8178C6.23638 19.681 6.15337 19.5568 6.04872 19.4521L5.71872 19.125H15C16.889 19.123 18.7001 18.3717 20.0359 17.0359C21.3717 15.7001 22.123 13.889 22.125 12C22.125 11.7016 22.0064 11.4154 21.7955 11.2045C21.5845 10.9935 21.2983 10.875 21 10.875Z" fill="#475569"/>
</svg>
