<svg width="24" height="24" viewBox="0 0 24 24" fill="none" xmlns="http://www.w3.org/2000/svg">
<path d="M16.0605 1.9209C16.2408 1.9209 16.4199 1.94782 16.5918 2L16.7607 2.06055C16.927 2.12948 17.0821 2.22214 17.2207 2.33594L17.3535 2.45703L21.543 6.64648C21.8854 6.9892 22.078 7.45399 22.0781 7.93848C22.0781 8.36272 21.9306 8.77235 21.6641 9.09766L21.543 9.23145L9.98242 20.793C9.8554 20.9208 9.71002 21.0285 9.55176 21.1133L9.38965 21.1895C9.16783 21.2814 8.92957 21.3288 8.68945 21.3281H4.5C4.07584 21.3281 3.66707 21.1805 3.3418 20.9141L3.20703 20.793C2.8642 20.4501 2.67188 19.9848 2.67188 19.5V15.3105L2.68066 15.1309C2.69216 15.0117 2.71529 14.8939 2.75 14.7793L2.81055 14.6104C2.87948 14.4441 2.97183 14.2888 3.08594 14.1504L3.20703 14.0176H3.20801L14.7676 2.45703C14.8949 2.32971 15.0401 2.22133 15.1982 2.13672L15.3613 2.06055C15.5831 1.96869 15.8205 1.92093 16.0605 1.9209ZM4.82812 15.4492V19.1719H8.55078L16.4727 11.25L12.75 7.52734L4.82812 15.4492ZM16.0303 4.24707L14.2773 6L18 9.72266L19.7861 7.93652L16.0967 4.24707L16.0635 4.21484L16.0303 4.24707Z" fill="#475569" stroke="#475569" stroke-width="0.09375"/>
</svg>
